<svg width="157" height="75" viewBox="0 0 157 75" fill="none" xmlns="http://www.w3.org/2000/svg">
<path d="M0 18.999H4.47282V40.2735H0V18.999Z" fill="white"/>
<path d="M22.5871 32.6181C22.5871 32.6755 22.5584 33.0769 22.5011 33.8223H10.8316C11.0419 34.7781 11.5388 35.5331 12.3225 36.0874C13.1062 36.6417 14.0811 36.9189 15.2471 36.9189C16.0499 36.9189 16.7571 36.8042 17.3688 36.5748C17.9996 36.3264 18.5826 35.9441 19.1178 35.428L21.4976 38.0084C20.0448 39.6714 17.9231 40.5029 15.1324 40.5029C13.393 40.5029 11.8542 40.1684 10.5162 39.4994C9.17816 38.8113 8.14597 37.8651 7.41961 36.6609C6.69326 35.4566 6.33008 34.0899 6.33008 32.5608C6.33008 31.0507 6.6837 29.6936 7.39094 28.4894C8.1173 27.266 9.1017 26.3199 10.3442 25.6508C11.6058 24.9627 13.0107 24.6187 14.559 24.6187C16.069 24.6187 17.4357 24.9436 18.659 25.5935C19.8824 26.2434 20.8381 27.18 21.5262 28.4033C22.2335 29.6076 22.5871 31.0125 22.5871 32.6181ZM14.5876 28.0019C13.5746 28.0019 12.724 28.2887 12.0358 28.8621C11.3477 29.4355 10.9272 30.2192 10.7743 31.2132H18.3723C18.2194 30.2384 17.7989 29.4642 17.1108 28.8908C16.4226 28.2982 15.5816 28.0019 14.5876 28.0019Z" fill="white"/>
<path d="M34.3671 39.528C33.9275 39.8529 33.3827 40.1014 32.7328 40.2734C32.102 40.4263 31.433 40.5028 30.7258 40.5028C28.8908 40.5028 27.4667 40.0345 26.4537 39.0979C25.4597 38.1613 24.9627 36.785 24.9627 34.9691V28.6326H22.583V25.192H24.9627V21.436H29.4355V25.192H33.2776V28.6326H29.4355V34.9118C29.4355 35.5617 29.598 36.0682 29.923 36.4314C30.267 36.7754 30.7449 36.9475 31.3566 36.9475C32.0638 36.9475 32.6659 36.7563 33.1629 36.374L34.3671 39.528Z" fill="white"/>
<path d="M55.4864 24.6187C57.417 24.6187 58.9461 25.1921 60.0739 26.339C61.2208 27.4667 61.7942 29.1679 61.7942 31.4426V40.2735H57.3214V32.1307C57.3214 30.9074 57.0633 29.9994 56.5473 29.4069C56.0503 28.7952 55.3335 28.4894 54.3969 28.4894C53.3456 28.4894 52.5141 28.8334 51.9024 29.5216C51.2907 30.1906 50.9849 31.1941 50.9849 32.5321V40.2735H46.5121V32.1307C46.5121 29.7031 45.5372 28.4894 43.5875 28.4894C42.5554 28.4894 41.7334 28.8334 41.1218 29.5216C40.5101 30.1906 40.2043 31.1941 40.2043 32.5321V40.2735H35.7314V24.848H40.0036V26.6257C40.577 25.9758 41.2747 25.4788 42.0966 25.1348C42.9377 24.7907 43.8552 24.6187 44.8491 24.6187C45.9386 24.6187 46.923 24.8385 47.8023 25.2781C48.6816 25.6986 49.3888 26.3199 49.924 27.1418C50.5548 26.339 51.3481 25.7177 52.3038 25.2781C53.2787 24.8385 54.3395 24.6187 55.4864 24.6187Z" fill="white"/>
<path d="M79.9342 32.6181C79.9342 32.6755 79.9055 33.0769 79.8482 33.8223H68.1787C68.3889 34.7781 68.8859 35.5331 69.6696 36.0874C70.4533 36.6417 71.4282 36.9189 72.5942 36.9189C73.397 36.9189 74.1043 36.8042 74.716 36.5748C75.3468 36.3264 75.9298 35.9441 76.465 35.428L78.8447 38.0084C77.392 39.6714 75.2702 40.5029 72.4795 40.5029C70.74 40.5029 69.2013 40.1684 67.8633 39.4994C66.5253 38.8113 65.4931 37.8651 64.7667 36.6609C64.0404 35.4566 63.6772 34.0899 63.6772 32.5608C63.6772 31.0507 64.0308 29.6936 64.7381 28.4894C65.4644 27.266 66.4488 26.3199 67.6913 25.6508C68.9528 24.9627 70.3577 24.6187 71.906 24.6187C73.4161 24.6187 74.7828 24.9436 76.0061 25.5935C77.2295 26.2434 78.1852 27.18 78.8733 28.4033C79.5805 29.6076 79.9342 31.0125 79.9342 32.6181ZM71.9347 28.0019C70.9216 28.0019 70.071 28.2887 69.3829 28.8621C68.6948 29.4355 68.2743 30.2192 68.1213 31.2132H75.7194C75.5665 30.2384 75.146 29.4642 74.4578 28.8908C73.7697 28.2982 72.9287 28.0019 71.9347 28.0019Z" fill="white"/>
<path d="M106.086 24.848L103.018 40.2735H98.7747L99.0615 38.7539C97.7808 39.9199 96.2038 40.5029 94.3306 40.5029C93.1264 40.5029 92.0177 40.2257 91.0047 39.6714C89.9916 39.1171 89.1792 38.3238 88.5675 37.2916C87.975 36.2403 87.6787 35.0074 87.6787 33.593C87.6787 31.8918 88.0514 30.3626 88.7969 29.0055C89.5615 27.6292 90.5937 26.5588 91.8935 25.7942C93.1933 25.0105 94.6269 24.6187 96.1943 24.6187C98.5645 24.6187 100.237 25.3928 101.212 26.9411L101.613 24.848H106.086ZM95.7068 36.8042C96.5861 36.8042 97.3698 36.594 98.0579 36.1734C98.7461 35.7338 99.2813 35.1317 99.6636 34.3671C100.046 33.6025 100.237 32.7233 100.237 31.7293C100.237 30.678 99.9216 29.8465 99.2908 29.2348C98.6792 28.6232 97.819 28.3173 96.7104 28.3173C95.8311 28.3173 95.0474 28.5372 94.3593 28.9768C93.6711 29.3973 93.1359 29.9899 92.7536 30.7544C92.3713 31.519 92.1802 32.3983 92.1802 33.3923C92.1802 34.4436 92.486 35.2751 93.0977 35.8867C93.7285 36.4984 94.5982 36.8042 95.7068 36.8042Z" fill="url(#paint0_linear)"/>
<path d="M111.632 40.5029C110.294 40.5029 109.023 40.3595 107.819 40.0728C106.634 39.767 105.707 39.3751 105.038 38.8973L106.758 35.6573C107.427 36.097 108.239 36.4506 109.195 36.7182C110.17 36.9858 111.145 37.1196 112.119 37.1196C113.133 37.1196 113.888 36.9954 114.385 36.7469C114.882 36.4793 115.13 36.1065 115.13 35.6287C115.13 35.2464 114.91 34.9692 114.471 34.7972C114.031 34.6252 113.324 34.4436 112.349 34.2524C111.24 34.0422 110.323 33.8128 109.596 33.5643C108.889 33.3158 108.268 32.9144 107.733 32.3601C107.217 31.7866 106.959 31.0125 106.959 30.0376C106.959 28.3364 107.666 27.008 109.08 26.0523C110.514 25.0965 112.387 24.6187 114.7 24.6187C115.77 24.6187 116.812 24.7333 117.825 24.9627C118.838 25.1921 119.698 25.5075 120.406 25.9089L118.8 29.1775C117.538 28.3938 116.019 28.0019 114.241 28.0019C113.266 28.0019 112.521 28.1453 112.005 28.432C111.508 28.7187 111.259 29.0819 111.259 29.5216C111.259 29.923 111.479 30.2192 111.919 30.4104C112.358 30.5824 113.094 30.7736 114.127 30.9838C115.216 31.1941 116.105 31.4235 116.793 31.6719C117.5 31.9013 118.112 32.2932 118.628 32.8475C119.144 33.4018 119.402 34.1568 119.402 35.1126C119.402 36.8329 118.676 38.1614 117.223 39.098C115.79 40.0346 113.926 40.5029 111.632 40.5029Z" fill="url(#paint1_linear)"/>
<path d="M131.595 31.5573L136.899 40.2735H131.71L128.04 34.2811L125.316 36.5462L124.57 40.2735H120.097L124.341 18.999H128.814L126.434 30.8978L133.831 24.848H139.652L131.595 31.5573Z" fill="url(#paint2_linear)"/>
<path d="M81.084 15.9024V8.73438C81.084 5.56737 83.6514 3 86.8184 3H148.463C151.63 3 154.198 5.56737 154.198 8.73438V48.8751C154.198 52.0421 151.63 54.6094 148.463 54.6094H138.428L141.782 70.2603C142.075 71.6282 140.436 72.563 139.408 71.6141L124.092 57.4766H86.8184C83.6514 57.4766 81.084 54.9093 81.084 51.7422V48.8751" stroke="url(#paint3_linear)" stroke-width="4.30079"/>
<defs>
<linearGradient id="paint0_linear" x1="87.6787" y1="18.999" x2="99.7578" y2="53.1104" gradientUnits="userSpaceOnUse">
<stop stop-color="#485BFF"/>
<stop offset="1" stop-color="#FF59F8"/>
</linearGradient>
<linearGradient id="paint1_linear" x1="87.6788" y1="18.999" x2="99.7579" y2="53.1104" gradientUnits="userSpaceOnUse">
<stop stop-color="#485BFF"/>
<stop offset="1" stop-color="#FF59F8"/>
</linearGradient>
<linearGradient id="paint2_linear" x1="87.6789" y1="18.999" x2="99.758" y2="53.1105" gradientUnits="userSpaceOnUse">
<stop stop-color="#485BFF"/>
<stop offset="1" stop-color="#FF59F8"/>
</linearGradient>
<linearGradient id="paint3_linear" x1="81.084" y1="3" x2="141.295" y2="77.547" gradientUnits="userSpaceOnUse">
<stop stop-color="#485BFF"/>
<stop offset="1" stop-color="#FF59F8"/>
</linearGradient>
</defs>
</svg>
