<svg width="15" height="15" viewBox="0 0 15 15" fill="none" xmlns="http://www.w3.org/2000/svg">
<path d="M7.5 1.49933V0.5V1.49933ZM7.5 14.4908V13.4915V14.4908ZM13.5 7.49542H14.5H13.5ZM1.5 7.49542H0.5H1.5ZM2.5 2.49866L1.5 1.49933L2.5 2.49866ZM13.5 1.49933L12.5 2.49866L13.5 1.49933ZM2.5 12.4921L1.5 13.4915L2.5 12.4921ZM13.5 13.4915L12.5 12.4921L13.5 13.4915ZM10.5 7.49542C10.5 9.15134 9.157 10.4935 7.5 10.4935C5.843 10.4935 4.5 9.15134 4.5 7.49542C4.5 5.8395 5.843 4.49738 7.5 4.49738C9.157 4.49738 10.5 5.8395 10.5 7.49542Z" stroke="#737380" stroke-linecap="square"/>
</svg>
