<svg width="277" height="107" viewBox="0 0 277 107" fill="none" xmlns="http://www.w3.org/2000/svg">
<g clip-path="url(#clip0)">
<rect width="277" height="107" rx="8" fill="url(#paint0_linear)"/>
<path d="M189 31.9946V34.4878V46.9538C189 48.0554 189.878 48.9484 190.961 48.9484H203.706L208.943 53.8658C209.294 54.1958 209.855 53.8707 209.755 53.3949L208.608 47.9511H212.039C213.122 47.9511 214 47.0581 214 45.9565V31.9946C214 30.893 213.122 30 212.039 30H190.961C189.878 30 189 30.893 189 31.9946Z" stroke="#F8F8F8" stroke-opacity="0.5" stroke-width="2.3"/>
<path d="M131 -5.00543V-2.51222V9.95383C131 11.0554 131.878 11.9484 132.961 11.9484H145.706L150.943 16.8658C151.294 17.1958 151.855 16.8707 151.755 16.3949L150.608 10.9511H154.039C155.122 10.9511 156 10.0581 156 8.95654V-5.00543C156 -6.107 155.122 -7 154.039 -7H132.961C131.878 -7 131 -6.107 131 -5.00543Z" stroke="#F8F8F8" stroke-opacity="0.5" stroke-width="2.3"/>
<path d="M30 9.4101V12.4227V27.4859C30 28.8169 31.0534 29.896 32.3529 29.896H47.6471L53.9314 35.8378C54.3532 36.2366 55.0258 35.8438 54.9055 35.2688L53.5294 28.6909H57.6471C58.9466 28.6909 60 27.6119 60 26.2808V9.4101C60 8.07904 58.9466 7 57.6471 7H32.3529C31.0534 7 30 8.07904 30 9.4101Z" stroke="#F8F8F8" stroke-opacity="0.5" stroke-width="2.3"/>
<path d="M119 76.8284V79.1138V90.541C119 91.5508 119.773 92.3694 120.725 92.3694H131.941L136.55 96.8769C136.859 97.1795 137.352 96.8815 137.264 96.4453L136.255 91.4552H139.275C140.227 91.4552 141 90.6366 141 89.6268V76.8284C141 75.8186 140.227 75 139.275 75H120.725C119.773 75 119 75.8186 119 76.8284Z" stroke="#F8F8F8" stroke-opacity="0.5" stroke-width="2.3"/>
<path d="M57 54.8284V57.1138V68.541C57 69.5508 57.7725 70.3694 58.7255 70.3694H69.9412L74.5497 74.8769C74.859 75.1795 75.3523 74.8815 75.2641 74.4453L74.2549 69.4552H77.2745C78.2275 69.4552 79 68.6366 79 67.6268V54.8284C79 53.8186 78.2275 53 77.2745 53H58.7255C57.7725 53 57 53.8186 57 54.8284Z" stroke="#F8F8F8" stroke-opacity="0.5" stroke-width="2.3"/>
<path d="M215 73.075V76.9187V96.1372C215 97.8354 216.334 99.2121 217.98 99.2121H237.353L245.313 106.793C245.847 107.302 246.699 106.801 246.547 106.067L244.804 97.6746H250.02C251.666 97.6746 253 96.2979 253 94.5997V73.075C253 71.3767 251.666 70 250.02 70H217.98C216.334 70 215 71.3767 215 73.075Z" stroke="#F8F8F8" stroke-opacity="0.5" stroke-width="2.3"/>
<path d="M-11 63.9087V67.5447V85.7243C-11 87.3308 -9.70075 88.6331 -8.09804 88.6331H10.7647L18.5153 95.8042C19.0356 96.2856 19.8652 95.8114 19.7168 95.1175L18.0196 87.1787H23.098C24.7007 87.1787 26 85.8764 26 84.27V63.9087C26 62.3023 24.7007 61 23.098 61H-8.09804C-9.70075 61 -11 62.3023 -11 63.9087Z" stroke="#F8F8F8" stroke-opacity="0.5" stroke-width="3.3"/>
<path d="M68 42H72.4728V63.2746H68V42Z" fill="#29292E"/>
<path d="M90.5872 55.6192C90.5872 55.6765 90.5585 56.0779 90.5012 56.8234H78.8317C79.042 57.7791 79.5389 58.5341 80.3226 59.0885C81.1063 59.6428 82.0812 59.9199 83.2472 59.9199C84.05 59.9199 84.7572 59.8053 85.3689 59.5759C85.9997 59.3274 86.5827 58.9451 87.1179 58.429L89.4977 61.0095C88.0449 62.6724 85.9232 63.5039 83.1325 63.5039C81.3931 63.5039 79.8543 63.1694 78.5163 62.5004C77.1783 61.8123 76.1461 60.8661 75.4198 59.6619C74.6934 58.4577 74.3302 57.091 74.3302 55.5618C74.3302 54.0518 74.6838 52.6946 75.3911 51.4904C76.1174 50.2671 77.1018 49.3209 78.3443 48.6519C79.6059 47.9638 81.0108 47.6197 82.5591 47.6197C84.0691 47.6197 85.4358 47.9446 86.6591 48.5945C87.8825 49.2444 88.8382 50.1811 89.5263 51.4044C90.2336 52.6086 90.5872 54.0135 90.5872 55.6192ZM82.5877 51.003C81.5747 51.003 80.7241 51.2897 80.0359 51.8631C79.3478 52.4366 78.9273 53.2203 78.7744 54.2142H86.3724C86.2195 53.2394 85.799 52.4652 85.1109 51.8918C84.4227 51.2993 83.5817 51.003 82.5877 51.003Z" fill="#29292E"/>
<path d="M102.367 62.5291C101.928 62.854 101.383 63.1025 100.733 63.2746C100.102 63.4275 99.4332 63.5039 98.726 63.5039C96.891 63.5039 95.4669 63.0356 94.4539 62.099C93.4599 61.1624 92.9629 59.7861 92.9629 57.9703V51.6338H90.5832V48.1931H92.9629V44.4371H97.4357V48.1931H101.278V51.6338H97.4357V57.9129C97.4357 58.5628 97.5982 59.0693 97.9232 59.4325C98.2672 59.7766 98.7451 59.9486 99.3568 59.9486C100.064 59.9486 100.666 59.7575 101.163 59.3752L102.367 62.5291Z" fill="#29292E"/>
<path d="M123.486 47.6197C125.417 47.6197 126.946 48.1931 128.074 49.34C129.221 50.4678 129.794 52.169 129.794 54.4436V63.2746H125.321V55.1317C125.321 53.9084 125.063 53.0005 124.547 52.4079C124.05 51.7962 123.333 51.4904 122.397 51.4904C121.345 51.4904 120.514 51.8345 119.902 52.5226C119.291 53.1916 118.985 54.1951 118.985 55.5331V63.2746H114.512V55.1317C114.512 52.7042 113.537 51.4904 111.587 51.4904C110.555 51.4904 109.733 51.8345 109.122 52.5226C108.51 53.1916 108.204 54.1951 108.204 55.5331V63.2746H103.731V47.8491H108.003V49.6267C108.577 48.9768 109.274 48.4799 110.096 48.1358C110.937 47.7917 111.855 47.6197 112.849 47.6197C113.938 47.6197 114.923 47.8395 115.802 48.2791C116.681 48.6997 117.389 49.3209 117.924 50.1428C118.555 49.34 119.348 48.7188 120.304 48.2791C121.278 47.8395 122.339 47.6197 123.486 47.6197Z" fill="#29292E"/>
<path d="M147.934 55.6192C147.934 55.6765 147.906 56.0779 147.848 56.8234H136.179C136.389 57.7791 136.886 58.5341 137.67 59.0885C138.454 59.6428 139.428 59.9199 140.594 59.9199C141.397 59.9199 142.104 59.8053 142.716 59.5759C143.347 59.3274 143.93 58.9451 144.465 58.429L146.845 61.0095C145.392 62.6724 143.27 63.5039 140.48 63.5039C138.74 63.5039 137.202 63.1694 135.863 62.5004C134.525 61.8123 133.493 60.8661 132.767 59.6619C132.041 58.4577 131.677 57.091 131.677 55.5618C131.677 54.0518 132.031 52.6946 132.738 51.4904C133.465 50.2671 134.449 49.3209 135.691 48.6519C136.953 47.9638 138.358 47.6197 139.906 47.6197C141.416 47.6197 142.783 47.9446 144.006 48.5945C145.23 49.2444 146.185 50.1811 146.874 51.4044C147.581 52.6086 147.934 54.0135 147.934 55.6192ZM139.935 51.003C138.922 51.003 138.071 51.2897 137.383 51.8631C136.695 52.4366 136.274 53.2203 136.122 54.2142H143.72C143.567 53.2394 143.146 52.4652 142.458 51.8918C141.77 51.2993 140.929 51.003 139.935 51.003Z" fill="#29292E"/>
<path d="M174.407 47.8491L171.339 63.2746H167.096L167.383 61.7549C166.102 62.9209 164.525 63.5039 162.652 63.5039C161.448 63.5039 160.339 63.2268 159.326 62.6724C158.313 62.1181 157.5 61.3249 156.889 60.2927C156.296 59.2414 156 58.0085 156 56.594C156 54.8928 156.373 53.3636 157.118 52.0065C157.883 50.6302 158.915 49.5598 160.215 48.7952C161.515 48.0115 162.948 47.6197 164.516 47.6197C166.886 47.6197 168.558 48.3938 169.533 49.9421L169.935 47.8491H174.407ZM164.028 59.8053C164.907 59.8053 165.691 59.595 166.379 59.1745C167.067 58.7348 167.603 58.1327 167.985 57.3681C168.367 56.6036 168.558 55.7243 168.558 54.7303C168.558 53.679 168.243 52.8475 167.612 52.2359C167 51.6242 166.14 51.3184 165.032 51.3184C164.152 51.3184 163.369 51.5382 162.681 51.9778C161.992 52.3983 161.457 52.9909 161.075 53.7555C160.693 54.5201 160.501 55.3993 160.501 56.3933C160.501 57.4446 160.807 58.2761 161.419 58.8878C162.05 59.4994 162.919 59.8053 164.028 59.8053Z" fill="#FEFEFE"/>
<path d="M179.953 63.5039C178.615 63.5039 177.344 63.3606 176.14 63.0739C174.955 62.768 174.028 62.3762 173.359 61.8983L175.079 58.6584C175.748 59.098 176.561 59.4516 177.516 59.7192C178.491 59.9868 179.466 60.1206 180.441 60.1206C181.454 60.1206 182.209 59.9964 182.706 59.7479C183.203 59.4803 183.451 59.1076 183.451 58.6297C183.451 58.2474 183.232 57.9703 182.792 57.7982C182.352 57.6262 181.645 57.4446 180.67 57.2535C179.562 57.0432 178.644 56.8138 177.918 56.5653C177.21 56.3168 176.589 55.9154 176.054 55.3611C175.538 54.7877 175.28 54.0135 175.28 53.0387C175.28 51.3375 175.987 50.009 177.402 49.0533C178.835 48.0976 180.708 47.6197 183.021 47.6197C184.092 47.6197 185.133 47.7344 186.146 47.9638C187.16 48.1931 188.02 48.5085 188.727 48.9099L187.121 52.1785C185.86 51.3948 184.34 51.003 182.563 51.003C181.588 51.003 180.842 51.1463 180.326 51.4331C179.829 51.7198 179.581 52.083 179.581 52.5226C179.581 52.924 179.8 53.2203 180.24 53.4114C180.68 53.5835 181.416 53.7746 182.448 53.9849C183.537 54.1951 184.426 54.4245 185.114 54.673C185.822 54.9024 186.433 55.2942 186.949 55.8485C187.465 56.4029 187.723 57.1579 187.723 58.1136C187.723 59.8339 186.997 61.1624 185.544 62.099C184.111 63.0356 182.247 63.5039 179.953 63.5039Z" fill="#FEFEFE"/>
<path d="M199.916 54.5583L205.22 63.2746H200.031L196.361 57.2821L193.637 59.5472L192.892 63.2746H188.419L192.662 42H197.135L194.755 53.8988L202.153 47.8491H207.973L199.916 54.5583Z" fill="#FEFEFE"/>
<path d="M234 -4.17436V-0.642315V17.0179C234 18.5785 235.264 19.8436 236.824 19.8436H255.176L262.718 26.8098C263.224 27.2774 264.031 26.8168 263.887 26.1427L262.235 18.4307H267.176C268.736 18.4307 270 17.1657 270 15.6051V-4.17436C270 -5.73492 268.736 -7 267.176 -7H236.824C235.264 -7 234 -5.73492 234 -4.17436Z" stroke="#F8F8F8" stroke-opacity="0.5" stroke-width="3.3"/>
</g>
<defs>
<linearGradient id="paint0_linear" x1="0" y1="0" x2="56.9275" y2="172.197" gradientUnits="userSpaceOnUse">
<stop stop-color="#485BFF"/>
<stop offset="1" stop-color="#FF59F8"/>
</linearGradient>
<clipPath id="clip0">
<rect width="277" height="107" fill="white"/>
</clipPath>
</defs>
</svg>
