<svg width="310" height="89" viewBox="0 0 310 89" fill="none" xmlns="http://www.w3.org/2000/svg">
<path d="M199 22.9946V25.4878V37.9538C199 39.0554 199.878 39.9484 200.961 39.9484H213.706L218.943 44.8658C219.294 45.1958 219.855 44.8707 219.755 44.3949L218.608 38.9511H222.039C223.122 38.9511 224 38.0581 224 36.9565V22.9946C224 21.893 223.122 21 222.039 21H200.961C199.878 21 199 21.893 199 22.9946Z" stroke="url(#paint0_linear)" stroke-opacity="0.5" stroke-width="2.3"/>
<path d="M124 7.99457V10.4878V22.9538C124 24.0554 124.878 24.9484 125.961 24.9484H138.706L143.943 29.8658C144.294 30.1958 144.855 29.8707 144.755 29.3949L143.608 23.9511H147.039C148.122 23.9511 149 23.0581 149 21.9565V7.99457C149 6.893 148.122 6 147.039 6H125.961C124.878 6 124 6.893 124 7.99457Z" stroke="url(#paint1_linear)" stroke-opacity="0.5" stroke-width="2.3"/>
<path d="M23 5.5736V10.0406V32.3756C23 34.3493 24.5451 35.9492 26.451 35.9492H48.8824L58.0993 44.7595C58.718 45.3509 59.7045 44.7683 59.5281 43.9158L57.5098 34.1624H63.549C65.4549 34.1624 67 32.5625 67 30.5888V5.5736C67 3.59996 65.4549 2 63.549 2H26.451C24.5451 2 23 3.59996 23 5.5736Z" stroke="url(#paint2_linear)" stroke-opacity="0.5" stroke-width="2.3"/>
<path d="M156 70.4128V72.1788V81.009C156 81.7892 156.597 82.4218 157.333 82.4218H166L169.561 85.9049C169.8 86.1387 170.181 85.9084 170.113 85.5714L169.333 81.7154H171.667C172.403 81.7154 173 81.0828 173 80.3026V70.4128C173 69.6325 172.403 69 171.667 69H157.333C156.597 69 156 69.6325 156 70.4128Z" stroke="url(#paint3_linear)" stroke-opacity="0.5" stroke-width="1.8"/>
<path d="M73 44.8284V47.1138V58.541C73 59.5508 73.7725 60.3694 74.7255 60.3694H85.9412L90.5497 64.8769C90.859 65.1795 91.3523 64.8815 91.2641 64.4453L90.2549 59.4552H93.2745C94.2275 59.4552 95 58.6366 95 57.6268V44.8284C95 43.8186 94.2275 43 93.2745 43H74.7255C73.7725 43 73 43.8186 73 44.8284Z" stroke="url(#paint4_linear)" stroke-opacity="0.5" stroke-width="2.3"/>
<path d="M234 53.075V56.9187V76.1372C234 77.8354 235.334 79.2121 236.98 79.2121H256.353L264.313 86.7931C264.847 87.3019 265.699 86.8007 265.547 86.0671L263.804 77.6746H269.02C270.666 77.6746 272 76.2979 272 74.5997V53.075C272 51.3767 270.666 50 269.02 50H236.98C235.334 50 234 51.3767 234 53.075Z" stroke="url(#paint5_linear)" stroke-opacity="0.5" stroke-width="2.3"/>
<path d="M2 56.4932V59.6097V75.1923C2 76.5692 3.12368 77.6855 4.5098 77.6855H20.8235L27.5268 83.8322C27.9767 84.2448 28.6942 83.8384 28.5659 83.2436L27.098 76.4389H31.4902C32.8763 76.4389 34 75.3226 34 73.9457V56.4932C34 55.1162 32.8763 54 31.4902 54H4.5098C3.12368 54 2 55.1162 2 56.4932Z" stroke="url(#paint6_linear)" stroke-opacity="0.5" stroke-width="2.3"/>
<path d="M84 35H88.4728V56.2746H84V35Z" fill="url(#paint7_linear)"/>
<path d="M106.587 48.6192C106.587 48.6765 106.559 49.0779 106.501 49.8234H94.8317C95.042 50.7791 95.5389 51.5341 96.3226 52.0885C97.1063 52.6428 98.0812 52.9199 99.2472 52.9199C100.05 52.9199 100.757 52.8053 101.369 52.5759C102 52.3274 102.583 51.9451 103.118 51.429L105.498 54.0095C104.045 55.6724 101.923 56.5039 99.1325 56.5039C97.3931 56.5039 95.8543 56.1694 94.5163 55.5004C93.1783 54.8123 92.1461 53.8661 91.4198 52.6619C90.6934 51.4577 90.3302 50.091 90.3302 48.5618C90.3302 47.0518 90.6838 45.6946 91.3911 44.4904C92.1174 43.2671 93.1018 42.3209 94.3443 41.6519C95.6059 40.9638 97.0108 40.6197 98.5591 40.6197C100.069 40.6197 101.436 40.9446 102.659 41.5945C103.882 42.2444 104.838 43.1811 105.526 44.4044C106.234 45.6086 106.587 47.0135 106.587 48.6192ZM98.5877 44.003C97.5747 44.003 96.7241 44.2897 96.0359 44.8631C95.3478 45.4366 94.9273 46.2203 94.7744 47.2142H102.372C102.22 46.2394 101.799 45.4652 101.111 44.8918C100.423 44.2993 99.5817 44.003 98.5877 44.003Z" fill="url(#paint8_linear)"/>
<path d="M118.367 55.5291C117.928 55.854 117.383 56.1025 116.733 56.2746C116.102 56.4275 115.433 56.5039 114.726 56.5039C112.891 56.5039 111.467 56.0356 110.454 55.099C109.46 54.1624 108.963 52.7861 108.963 50.9703V44.6338H106.583V41.1931H108.963V37.4371H113.436V41.1931H117.278V44.6338H113.436V50.9129C113.436 51.5628 113.598 52.0693 113.923 52.4325C114.267 52.7766 114.745 52.9486 115.357 52.9486C116.064 52.9486 116.666 52.7575 117.163 52.3752L118.367 55.5291Z" fill="url(#paint9_linear)"/>
<path d="M139.486 40.6197C141.417 40.6197 142.946 41.1931 144.074 42.34C145.221 43.4678 145.794 45.169 145.794 47.4436V56.2746H141.321V48.1317C141.321 46.9084 141.063 46.0005 140.547 45.4079C140.05 44.7962 139.333 44.4904 138.397 44.4904C137.345 44.4904 136.514 44.8345 135.902 45.5226C135.291 46.1916 134.985 47.1951 134.985 48.5331V56.2746H130.512V48.1317C130.512 45.7042 129.537 44.4904 127.587 44.4904C126.555 44.4904 125.733 44.8345 125.122 45.5226C124.51 46.1916 124.204 47.1951 124.204 48.5331V56.2746H119.731V40.8491H124.003V42.6267C124.577 41.9768 125.274 41.4799 126.096 41.1358C126.937 40.7917 127.855 40.6197 128.849 40.6197C129.938 40.6197 130.923 40.8395 131.802 41.2791C132.681 41.6997 133.389 42.3209 133.924 43.1428C134.555 42.34 135.348 41.7188 136.304 41.2791C137.278 40.8395 138.339 40.6197 139.486 40.6197Z" fill="url(#paint10_linear)"/>
<path d="M163.934 48.6192C163.934 48.6765 163.906 49.0779 163.848 49.8234H152.179C152.389 50.7791 152.886 51.5341 153.67 52.0885C154.454 52.6428 155.428 52.9199 156.594 52.9199C157.397 52.9199 158.104 52.8053 158.716 52.5759C159.347 52.3274 159.93 51.9451 160.465 51.429L162.845 54.0095C161.392 55.6724 159.27 56.5039 156.48 56.5039C154.74 56.5039 153.202 56.1694 151.863 55.5004C150.525 54.8123 149.493 53.8661 148.767 52.6619C148.041 51.4577 147.677 50.091 147.677 48.5618C147.677 47.0518 148.031 45.6946 148.738 44.4904C149.465 43.2671 150.449 42.3209 151.691 41.6519C152.953 40.9638 154.358 40.6197 155.906 40.6197C157.416 40.6197 158.783 40.9446 160.006 41.5945C161.23 42.2444 162.185 43.1811 162.874 44.4044C163.581 45.6086 163.934 47.0135 163.934 48.6192ZM155.935 44.003C154.922 44.003 154.071 44.2897 153.383 44.8631C152.695 45.4366 152.274 46.2203 152.122 47.2142H159.72C159.567 46.2394 159.146 45.4652 158.458 44.8918C157.77 44.2993 156.929 44.003 155.935 44.003Z" fill="url(#paint11_linear)"/>
<path d="M190.407 40.8491L187.339 56.2746H183.096L183.383 54.7549C182.102 55.9209 180.525 56.5039 178.652 56.5039C177.448 56.5039 176.339 56.2268 175.326 55.6724C174.313 55.1181 173.5 54.3249 172.889 53.2927C172.296 52.2414 172 51.0085 172 49.594C172 47.8928 172.373 46.3636 173.118 45.0065C173.883 43.6302 174.915 42.5598 176.215 41.7952C177.515 41.0115 178.948 40.6197 180.516 40.6197C182.886 40.6197 184.558 41.3938 185.533 42.9421L185.935 40.8491H190.407ZM180.028 52.8053C180.907 52.8053 181.691 52.595 182.379 52.1745C183.067 51.7348 183.603 51.1327 183.985 50.3681C184.367 49.6036 184.558 48.7243 184.558 47.7303C184.558 46.679 184.243 45.8475 183.612 45.2359C183 44.6242 182.14 44.3184 181.032 44.3184C180.152 44.3184 179.369 44.5382 178.681 44.9778C177.992 45.3983 177.457 45.9909 177.075 46.7555C176.693 47.5201 176.501 48.3993 176.501 49.3933C176.501 50.4446 176.807 51.2761 177.419 51.8878C178.05 52.4994 178.919 52.8053 180.028 52.8053Z" fill="url(#paint12_linear)"/>
<path d="M195.953 56.5039C194.615 56.5039 193.344 56.3606 192.14 56.0739C190.955 55.768 190.028 55.3762 189.359 54.8983L191.079 51.6584C191.748 52.098 192.561 52.4516 193.516 52.7192C194.491 52.9868 195.466 53.1206 196.441 53.1206C197.454 53.1206 198.209 52.9964 198.706 52.7479C199.203 52.4803 199.451 52.1076 199.451 51.6297C199.451 51.2474 199.232 50.9703 198.792 50.7982C198.352 50.6262 197.645 50.4446 196.67 50.2535C195.562 50.0432 194.644 49.8138 193.918 49.5653C193.21 49.3168 192.589 48.9154 192.054 48.3611C191.538 47.7877 191.28 47.0135 191.28 46.0387C191.28 44.3375 191.987 43.009 193.402 42.0533C194.835 41.0976 196.708 40.6197 199.021 40.6197C200.092 40.6197 201.133 40.7344 202.146 40.9638C203.16 41.1931 204.02 41.5085 204.727 41.9099L203.121 45.1785C201.86 44.3948 200.34 44.003 198.563 44.003C197.588 44.003 196.842 44.1463 196.326 44.4331C195.829 44.7198 195.581 45.083 195.581 45.5226C195.581 45.924 195.8 46.2203 196.24 46.4114C196.68 46.5835 197.416 46.7746 198.448 46.9849C199.537 47.1951 200.426 47.4245 201.114 47.673C201.822 47.9024 202.433 48.2942 202.949 48.8485C203.465 49.4029 203.723 50.1579 203.723 51.1136C203.723 52.8339 202.997 54.1624 201.544 55.099C200.111 56.0356 198.247 56.5039 195.953 56.5039Z" fill="url(#paint13_linear)"/>
<path d="M215.916 47.5583L221.22 56.2746H216.031L212.361 50.2821L209.637 52.5472L208.892 56.2746H204.419L208.662 35H213.135L210.755 46.8988L218.153 40.8491H223.973L215.916 47.5583Z" fill="url(#paint14_linear)"/>
<path d="M272 8.82564V12.3577V30.0179C272 31.5785 273.264 32.8436 274.824 32.8436H293.176L300.718 39.8098C301.224 40.2774 302.031 39.8168 301.887 39.1427L300.235 31.4307H305.176C306.736 31.4307 308 30.1657 308 28.6051V8.82564C308 7.26508 306.736 6 305.176 6H274.824C273.264 6 272 7.26508 272 8.82564Z" stroke="url(#paint15_linear)" stroke-opacity="0.5" stroke-width="2.3"/>
<defs>
<linearGradient id="paint0_linear" x1="199" y1="21" x2="220.015" y2="46.5784" gradientUnits="userSpaceOnUse">
<stop stop-color="#485BFF"/>
<stop offset="1" stop-color="#FF59F8"/>
</linearGradient>
<linearGradient id="paint1_linear" x1="124" y1="6" x2="145.015" y2="31.5784" gradientUnits="userSpaceOnUse">
<stop stop-color="#485BFF"/>
<stop offset="1" stop-color="#FF59F8"/>
</linearGradient>
<linearGradient id="paint2_linear" x1="23" y1="2" x2="60.7773" y2="47.1671" gradientUnits="userSpaceOnUse">
<stop stop-color="#485BFF"/>
<stop offset="1" stop-color="#FF59F8"/>
</linearGradient>
<linearGradient id="paint3_linear" x1="156" y1="69" x2="170.992" y2="86.5175" gradientUnits="userSpaceOnUse">
<stop stop-color="#485BFF"/>
<stop offset="1" stop-color="#FF59F8"/>
</linearGradient>
<linearGradient id="paint4_linear" x1="73" y1="43" x2="92.4017" y2="65.6697" gradientUnits="userSpaceOnUse">
<stop stop-color="#485BFF"/>
<stop offset="1" stop-color="#FF59F8"/>
</linearGradient>
<linearGradient id="paint5_linear" x1="234" y1="50" x2="266.485" y2="88.9823" gradientUnits="userSpaceOnUse">
<stop stop-color="#485BFF"/>
<stop offset="1" stop-color="#FF59F8"/>
</linearGradient>
<linearGradient id="paint6_linear" x1="2" y1="54" x2="28.1416" y2="86.5813" gradientUnits="userSpaceOnUse">
<stop stop-color="#485BFF"/>
<stop offset="1" stop-color="#FF59F8"/>
</linearGradient>
<linearGradient id="paint7_linear" x1="84" y1="35" x2="92.3937" y2="71.4563" gradientUnits="userSpaceOnUse">
<stop stop-color="#485BFF"/>
<stop offset="1" stop-color="#FF59F8"/>
</linearGradient>
<linearGradient id="paint8_linear" x1="84" y1="35" x2="92.3937" y2="71.4563" gradientUnits="userSpaceOnUse">
<stop stop-color="#485BFF"/>
<stop offset="1" stop-color="#FF59F8"/>
</linearGradient>
<linearGradient id="paint9_linear" x1="84" y1="35" x2="92.3937" y2="71.4563" gradientUnits="userSpaceOnUse">
<stop stop-color="#485BFF"/>
<stop offset="1" stop-color="#FF59F8"/>
</linearGradient>
<linearGradient id="paint10_linear" x1="84" y1="35" x2="92.3937" y2="71.4563" gradientUnits="userSpaceOnUse">
<stop stop-color="#485BFF"/>
<stop offset="1" stop-color="#FF59F8"/>
</linearGradient>
<linearGradient id="paint11_linear" x1="84" y1="35" x2="92.3937" y2="71.4563" gradientUnits="userSpaceOnUse">
<stop stop-color="#485BFF"/>
<stop offset="1" stop-color="#FF59F8"/>
</linearGradient>
<linearGradient id="paint12_linear" x1="172" y1="35" x2="184.079" y2="69.1116" gradientUnits="userSpaceOnUse">
<stop stop-color="#485BFF"/>
<stop offset="1" stop-color="#FF59F8"/>
</linearGradient>
<linearGradient id="paint13_linear" x1="172" y1="35" x2="184.079" y2="69.1116" gradientUnits="userSpaceOnUse">
<stop stop-color="#485BFF"/>
<stop offset="1" stop-color="#FF59F8"/>
</linearGradient>
<linearGradient id="paint14_linear" x1="172" y1="35" x2="184.079" y2="69.1116" gradientUnits="userSpaceOnUse">
<stop stop-color="#485BFF"/>
<stop offset="1" stop-color="#FF59F8"/>
</linearGradient>
<linearGradient id="paint15_linear" x1="272" y1="6" x2="301.674" y2="42.7116" gradientUnits="userSpaceOnUse">
<stop stop-color="#485BFF"/>
<stop offset="1" stop-color="#FF59F8"/>
</linearGradient>
</defs>
</svg>
