<svg width="70" height="66" viewBox="0 0 70 66" fill="none" xmlns="http://www.w3.org/2000/svg">
<path d="M70 5.48506V43.8805V46.623C70 49.6523 67.542 52.1081 64.5098 52.1081H28.8235L14.1602 65.6308C13.1759 66.5385 11.6064 65.6444 11.8871 64.3359L15.098 49.3656H5.4902C2.45805 49.3656 0 46.9098 0 43.8805V5.48506C0 2.45575 2.45804 0 5.4902 0H64.5098C67.542 0 70 2.45574 70 5.48506Z" fill="url(#paint0_linear)"/>
<path d="M40.0418 29.808L38.0349 39.8507H35.2589L35.4464 38.8613C34.6086 39.6204 33.577 40 32.3516 40C31.5638 40 30.8385 39.8196 30.1758 39.4587C29.513 39.0978 28.9816 38.5813 28.5815 37.9093C28.1938 37.2249 28 36.4222 28 35.5013C28 34.3938 28.2438 33.3982 28.7315 32.5147C29.2317 31.6187 29.9069 30.9218 30.7572 30.424C31.6076 29.9138 32.5454 29.6587 33.5708 29.6587C35.1213 29.6587 36.2155 30.1627 36.8532 31.1707L37.1158 29.808H40.0418ZM33.2519 37.592C33.8271 37.592 34.3398 37.4551 34.7899 37.1813C35.2401 36.8951 35.5902 36.5031 35.8403 36.0053C36.0904 35.5076 36.2155 34.9351 36.2155 34.288C36.2155 33.6036 36.0091 33.0622 35.5965 32.664C35.1963 32.2658 34.6336 32.0667 33.9084 32.0667C33.3332 32.0667 32.8205 32.2098 32.3703 32.496C31.9202 32.7698 31.57 33.1556 31.3199 33.6533C31.0699 34.1511 30.9448 34.7236 30.9448 35.3707C30.9448 36.0551 31.1449 36.5964 31.545 36.9947C31.9577 37.3929 32.5266 37.592 33.2519 37.592Z" fill="#F8F8F8"/>
<path d="M43.67 40C42.7946 40 41.9631 39.9067 41.1753 39.72C40.4 39.5209 39.7936 39.2658 39.3559 38.9547L40.4813 36.8453C40.919 37.1316 41.4504 37.3618 42.0756 37.536C42.7134 37.7102 43.3511 37.7973 43.9888 37.7973C44.6516 37.7973 45.1455 37.7164 45.4706 37.5547C45.7957 37.3804 45.9583 37.1378 45.9583 36.8267C45.9583 36.5778 45.8145 36.3973 45.5269 36.2853C45.2393 36.1733 44.7766 36.0551 44.1389 35.9307C43.4136 35.7938 42.8134 35.6444 42.3382 35.4827C41.8756 35.3209 41.4692 35.0596 41.119 34.6987C40.7814 34.3253 40.6126 33.8213 40.6126 33.1867C40.6126 32.0791 41.0753 31.2142 42.0006 30.592C42.9384 29.9698 44.1639 29.6587 45.6769 29.6587C46.3772 29.6587 47.0587 29.7333 47.7214 29.8827C48.3842 30.032 48.9469 30.2373 49.4095 30.4987L48.3591 32.6267C47.5338 32.1164 46.5397 31.8613 45.3768 31.8613C44.7391 31.8613 44.2514 31.9547 43.9138 32.1413C43.5887 32.328 43.4261 32.5644 43.4261 32.8507C43.4261 33.112 43.5699 33.3049 43.8575 33.4293C44.1451 33.5413 44.6265 33.6658 45.3018 33.8027C46.0146 33.9396 46.596 34.0889 47.0462 34.2507C47.5088 34.4 47.909 34.6551 48.2466 35.016C48.5842 35.3769 48.753 35.8684 48.753 36.4907C48.753 37.6107 48.2779 38.4756 47.3275 39.0853C46.3897 39.6951 45.1705 40 43.67 40Z" fill="#F8F8F8"/>
<path d="M56.7294 34.176L60.1994 39.8507H56.8044L54.4035 35.9493L52.6216 37.424L52.1339 39.8507H49.2079L51.9839 26H54.9099L53.3531 33.7467L58.1924 29.808H62L56.7294 34.176Z" fill="#F8F8F8"/>
<path d="M8 12H11.0216V25.8507H8V12Z" fill="#F8F8F8"/>
<path d="M23.2589 20.8667C23.2589 20.904 23.2395 21.1653 23.2008 21.6507H15.3174C15.4594 22.2729 15.7952 22.7644 16.3246 23.1253C16.854 23.4862 17.5126 23.6667 18.3003 23.6667C18.8426 23.6667 19.3204 23.592 19.7336 23.4427C20.1598 23.2809 20.5536 23.032 20.9152 22.696L22.5228 24.376C21.5414 25.4587 20.1081 26 18.2228 26C17.0477 26 16.0082 25.7822 15.1043 25.3467C14.2004 24.8987 13.5031 24.2827 13.0124 23.4987C12.5218 22.7147 12.2764 21.8249 12.2764 20.8293C12.2764 19.8462 12.5153 18.9627 12.9931 18.1787C13.4838 17.3822 14.1488 16.7662 14.9881 16.3307C15.8404 15.8827 16.7895 15.6587 17.8354 15.6587C18.8556 15.6587 19.7788 15.8702 20.6053 16.2933C21.4317 16.7164 22.0773 17.3262 22.5422 18.1227C23.02 18.9067 23.2589 19.8213 23.2589 20.8667ZM17.8548 17.8613C17.1704 17.8613 16.5958 18.048 16.1309 18.4213C15.6661 18.7947 15.382 19.3049 15.2787 19.952H20.4116C20.3083 19.3173 20.0242 18.8133 19.5593 18.44C19.0944 18.0542 18.5263 17.8613 17.8548 17.8613Z" fill="#F8F8F8"/>
<path d="M31.217 25.3653C30.92 25.5769 30.552 25.7387 30.1129 25.8507C29.6868 25.9502 29.2348 26 28.7571 26C27.5174 26 26.5554 25.6951 25.871 25.0853C25.1995 24.4756 24.8638 23.5796 24.8638 22.3973V18.272H23.2561V16.032H24.8638V13.5867H27.8854V16.032H30.4809V18.272H27.8854V22.36C27.8854 22.7831 27.9952 23.1129 28.2147 23.3493C28.4472 23.5733 28.77 23.6853 29.1832 23.6853C29.661 23.6853 30.0677 23.5609 30.4035 23.312L31.217 25.3653Z" fill="#F8F8F8"/>
<path d="M45.4839 15.6587C46.7881 15.6587 47.8212 16.032 48.583 16.7787C49.3578 17.5129 49.7452 18.6204 49.7452 20.1013V25.8507H46.7236V20.5493C46.7236 19.7529 46.5493 19.1618 46.2006 18.776C45.8649 18.3778 45.3806 18.1787 44.7479 18.1787C44.0377 18.1787 43.476 18.4027 43.0628 18.8507C42.6495 19.2862 42.4429 19.9396 42.4429 20.8107V25.8507H39.4213V20.5493C39.4213 18.9689 38.7627 18.1787 37.4456 18.1787C36.7483 18.1787 36.1931 18.4027 35.7798 18.8507C35.3666 19.2862 35.16 19.9396 35.16 20.8107V25.8507H32.1384V15.808H35.0244V16.9653C35.4118 16.5422 35.8832 16.2187 36.4384 15.9947C37.0066 15.7707 37.6264 15.6587 38.2979 15.6587C39.0339 15.6587 39.6989 15.8018 40.2929 16.088C40.8869 16.3618 41.3647 16.7662 41.7263 17.3013C42.1524 16.7787 42.6883 16.3742 43.3339 16.088C43.9925 15.8018 44.7092 15.6587 45.4839 15.6587Z" fill="#F8F8F8"/>
<path d="M62 20.8667C62 20.904 61.9806 21.1653 61.9419 21.6507H54.0585C54.2006 22.2729 54.5363 22.7644 55.0657 23.1253C55.5952 23.4862 56.2537 23.6667 57.0414 23.6667C57.5838 23.6667 58.0615 23.592 58.4748 23.4427C58.9009 23.2809 59.2947 23.032 59.6563 22.696L61.264 24.376C60.2826 25.4587 58.8492 26 56.9639 26C55.7889 26 54.7494 25.7822 53.8455 25.3467C52.9416 24.8987 52.2443 24.2827 51.7536 23.4987C51.2629 22.7147 51.0175 21.8249 51.0175 20.8293C51.0175 19.8462 51.2564 18.9627 51.7342 18.1787C52.2249 17.3822 52.8899 16.7662 53.7293 16.3307C54.5815 15.8827 55.5306 15.6587 56.5766 15.6587C57.5967 15.6587 58.52 15.8702 59.3464 16.2933C60.1728 16.7164 60.8185 17.3262 61.2833 18.1227C61.7611 18.9067 62 19.8213 62 20.8667ZM56.5959 17.8613C55.9115 17.8613 55.3369 18.048 54.872 18.4213C54.4072 18.7947 54.1231 19.3049 54.0198 19.952H59.1527C59.0494 19.3173 58.7653 18.8133 58.3004 18.44C57.8356 18.0542 57.2674 17.8613 56.5959 17.8613Z" fill="#F8F8F8"/>
<defs>
<linearGradient id="paint0_linear" x1="70" y1="0" x2="12.4182" y2="71.3585" gradientUnits="userSpaceOnUse">
<stop stop-color="#485BFF"/>
<stop offset="1" stop-color="#FF59F8"/>
</linearGradient>
</defs>
</svg>
